<?xml version="1.0"?>
<svg xmlns="http://www.w3.org/2000/svg" id="Layer_2" data-name="Layer 2" viewBox="0 0 128 128" width="512" height="512"><title>CORN</title><path d="M29.163,65.756a1.75,1.75,0,1,0-.992,3.355A33.807,33.807,0,0,1,48.664,86.236a1.75,1.75,0,0,0,3.124-1.578A37.312,37.312,0,0,0,29.163,65.756Z"/><path d="M76.212,84.658a1.751,1.751,0,0,0,3.124,1.578A33.807,33.807,0,0,1,99.83,69.111a1.75,1.75,0,1,0-.992-3.355A37.312,37.312,0,0,0,76.212,84.658Z"/><path d="M109.333,54.243a46.97,46.97,0,0,0-12.195,1.609C95.8,35.379,89.57,18.245,80.8,8.555a1.752,1.752,0,0,0-.205-.232C75.7,3.012,70.038,0,64,0S52.3,3.012,47.409,8.323a1.752,1.752,0,0,0-.205.232C38.43,18.245,32.2,35.379,30.861,55.852a46.97,46.97,0,0,0-12.195-1.609,1.75,1.75,0,0,0-1.75,1.75V72.91a47.158,47.158,0,0,0,35.917,45.734v3.606a5.756,5.756,0,0,0,5.75,5.75H69.417a5.756,5.756,0,0,0,5.75-5.75v-3.606A47.158,47.158,0,0,0,111.083,72.91V55.993A1.75,1.75,0,0,0,109.333,54.243ZM34.295,56.907q.165-2.806.457-5.529H42.8a1.75,1.75,0,0,0,0-3.5H35.189q.464-3.34,1.11-6.519c.036,0,.07.011.107.011h6.4a1.75,1.75,0,0,0,0-3.5H37.072c.542-2.249,1.149-4.424,1.82-6.509H42.8a1.75,1.75,0,0,0,0-3.5H40.114a53.958,53.958,0,0,1,9.3-16.516H55a1.75,1.75,0,0,0,0-3.5H53A17.386,17.386,0,0,1,64,3.5,17.386,17.386,0,0,1,75,7.846H73a1.75,1.75,0,0,0,0,3.5h5.582a53.958,53.958,0,0,1,9.3,16.516H85.2a1.75,1.75,0,0,0,0,3.5h3.909c.671,2.085,1.278,4.26,1.82,6.509H85.2a1.75,1.75,0,0,0,0,3.5h6.4c.037,0,.071-.009.107-.011q.645,3.174,1.11,6.519H85.2a1.75,1.75,0,0,0,0,3.5h8.05q.291,2.722.457,5.529c-.853.3-1.7.631-2.538.979H85.2a1.747,1.747,0,0,0-.612,3.384,46.833,46.833,0,0,0-8.433,6.624H73a1.748,1.748,0,0,0-.054,3.495A46.855,46.855,0,0,0,64,88.532a46.855,46.855,0,0,0-8.946-17.144A1.748,1.748,0,0,0,55,67.894H51.847a46.833,46.833,0,0,0-8.433-6.624,1.747,1.747,0,0,0-.612-3.384H36.833C36,57.538,35.148,57.206,34.295,56.907Zm37.372,62.459v2.884a2.253,2.253,0,0,1-2.25,2.25H58.583a2.253,2.253,0,0,1-2.25-2.25v-2.884A47.316,47.316,0,0,0,71.667,119.366ZM107.583,72.91A43.993,43.993,0,0,1,84.041,111.6a43.365,43.365,0,0,1-13.261,4.361,43.589,43.589,0,0,1-48.2-29.488A43.549,43.549,0,0,1,20.417,72.91V57.777A44.054,44.054,0,0,1,59.745,86.766a43.55,43.55,0,0,1,2.5,14.561,1.75,1.75,0,0,0,3.5,0A44.011,44.011,0,0,1,91.625,61.518a43.435,43.435,0,0,1,15.959-3.741Z"/><path d="M60.8,11.346h6.4a1.75,1.75,0,0,0,0-3.5H60.8a1.75,1.75,0,0,0,0,3.5Z"/><path d="M48.6,21.354H55a1.75,1.75,0,0,0,0-3.5H48.6a1.75,1.75,0,0,0,0,3.5Z"/><path d="M60.8,21.354h6.4a1.75,1.75,0,0,0,0-3.5H60.8a1.75,1.75,0,0,0,0,3.5Z"/><path d="M73,21.354h6.4a1.75,1.75,0,0,0,0-3.5H73a1.75,1.75,0,0,0,0,3.5Z"/><path d="M48.6,31.361H55a1.75,1.75,0,0,0,0-3.5H48.6a1.75,1.75,0,0,0,0,3.5Z"/><path d="M60.8,31.361h6.4a1.75,1.75,0,0,0,0-3.5H60.8a1.75,1.75,0,0,0,0,3.5Z"/><path d="M73,31.361h6.4a1.75,1.75,0,0,0,0-3.5H73a1.75,1.75,0,0,0,0,3.5Z"/><path d="M48.6,41.37H55a1.75,1.75,0,0,0,0-3.5H48.6a1.75,1.75,0,0,0,0,3.5Z"/><path d="M60.8,41.37h6.4a1.75,1.75,0,0,0,0-3.5H60.8a1.75,1.75,0,0,0,0,3.5Z"/><path d="M73,41.37h6.4a1.75,1.75,0,0,0,0-3.5H73a1.75,1.75,0,0,0,0,3.5Z"/><path d="M48.6,51.378H55a1.75,1.75,0,0,0,0-3.5H48.6a1.75,1.75,0,0,0,0,3.5Z"/><path d="M60.8,51.378h6.4a1.75,1.75,0,0,0,0-3.5H60.8a1.75,1.75,0,0,0,0,3.5Z"/><path d="M73,51.378h6.4a1.75,1.75,0,1,0,0-3.5H73a1.75,1.75,0,0,0,0,3.5Z"/><path d="M48.6,61.386H55a1.75,1.75,0,0,0,0-3.5H48.6a1.75,1.75,0,0,0,0,3.5Z"/><path d="M60.8,61.386h6.4a1.75,1.75,0,0,0,0-3.5H60.8a1.75,1.75,0,0,0,0,3.5Z"/><path d="M73,61.386h6.4a1.75,1.75,0,1,0,0-3.5H73a1.75,1.75,0,0,0,0,3.5Z"/><path d="M60.8,71.394h6.4a1.75,1.75,0,0,0,0-3.5H60.8a1.75,1.75,0,0,0,0,3.5Z"/></svg>
