<?xml version="1.0" encoding="iso-8859-1"?>
<!-- Generator: Adobe Illustrator 19.0.0, SVG Export Plug-In . SVG Version: 6.00 Build 0)  -->
<svg version="1.1" id="Capa_1" xmlns="http://www.w3.org/2000/svg" xmlns:xlink="http://www.w3.org/1999/xlink" x="0px" y="0px"
	 viewBox="0 0 432 432" style="enable-background:new 0 0 432 432;" xml:space="preserve">
<g>
	<path d="M348.027,208.161c-10.54-26.808-27.497-49.816-48.714-66.595C320.704,133.681,336,113.094,336,89c0-4.418-3.582-8-8-8
		s-8,3.582-8,8c0,19.422-13.917,35.649-32.301,39.249c0.197-1.785,0.301-3.58,0.301-5.377c0-30.102-27.779-54.984-63.474-58.445
		C228.236,37.119,251.691,16,280,16c4.418,0,8-3.582,8-8s-3.582-8-8-8c-27.842,0-52.026,15.896-64,39.079
		C204.026,15.896,179.842,0,152,0c-4.418,0-8,3.582-8,8s3.582,8,8,8c28.309,0,51.764,21.119,55.474,48.427
		C171.779,67.888,144,92.77,144,122.872c0,1.798,0.119,3.593,0.316,5.38C125.925,124.658,112,108.428,112,89c0-4.418-3.582-8-8-8
		s-8,3.582-8,8c0,24.094,15.296,44.681,36.687,52.565c-21.217,16.779-38.174,39.787-48.714,66.595C54.969,210.234,32,234.477,32,264
		c0,4.418,3.582,8,8,8s8-3.582,8-8c0-18.708,12.912-34.452,30.291-38.802C74.205,240.008,72,255.723,72,272
		c0,23.241,4.6,45.897,13.099,66.529c-22.889,13.392-32.127,44.438-20.49,72.533c1.276,3.081,4.255,4.94,7.394,4.94
		c1.021,0,2.058-0.196,3.059-0.611c4.082-1.691,6.021-6.371,4.33-10.453c-8.323-20.094-2.642-42.018,12.526-51.841
		c9.68,18.301,22.648,34.508,38.34,47.451c-1.499,1.666-3.015,3.278-4.548,4.83c-3.105,3.144-3.073,8.209,0.07,11.313
		c1.559,1.54,3.591,2.308,5.621,2.308c2.064,0,4.127-0.794,5.692-2.378c25.81-26.134,47.595-67.412,63-119.37
		c6.669-22.495,11.985-46.552,15.904-71.638c4.002,25.618,9.467,50.157,16.338,73.069c12.022,40.087,27.837,73.689,46.363,98.82
		C260.155,409.272,238.764,416,216,416c-14.754,0-29.215-2.8-42.979-8.323c-4.101-1.644-8.758,0.345-10.404,4.446
		c-1.645,4.101,0.345,8.758,4.446,10.404C182.73,428.813,199.195,432,216,432c26.527,0,51.396-8.02,72.761-21.979
		c2.502,2.84,5.045,5.539,7.629,8.082c1.559,1.534,3.585,2.298,5.611,2.298c2.069,0,4.137-0.797,5.702-2.388
		c3.099-3.149,3.059-8.214-0.09-11.313c-2-1.968-3.968-4.044-5.911-6.203c15.535-12.826,28.67-29.043,38.519-47.656
		c15.474,9.692,21.335,31.824,12.938,52.098c-1.691,4.082,0.248,8.762,4.33,10.453c1.001,0.415,2.038,0.611,3.059,0.611
		c3.139,0,6.118-1.86,7.394-4.94c11.705-28.26,2.292-59.512-20.894-72.772C355.36,318.081,360,295.632,360,272
		c0-16.277-2.205-31.992-6.291-46.802C371.088,229.548,384,245.292,384,264c0,4.418,3.582,8,8,8s8-3.582,8-8
		C400,234.477,377.031,210.234,348.027,208.161z M216,80c30.878,0,56,19.232,56,42.872c0,0.566-0.029,1.131-0.058,1.696
		C254.735,116.477,235.829,112,216,112c-19.831,0-38.738,4.478-55.946,12.57c-0.029-0.566-0.054-1.132-0.054-1.698
		C160,99.232,185.122,80,216,80z M140.348,388.134C107.532,361.021,88,317.811,88,272c0-76.358,53.105-139.013,119.945-143.707
		C206.674,235.375,180.868,333.34,140.348,388.134z M291.61,388.115c-40.535-54.759-66.289-152.477-67.555-259.822
		C290.895,132.987,344,195.642,344,272C344,319.607,323.353,361.884,291.61,388.115z"/>
	<path d="M136,312c-8.822,0-16,7.178-16,16s7.178,16,16,16s16-7.178,16-16S144.822,312,136,312z"/>
	<path d="M160,264c-8.822,0-16,7.178-16,16s7.178,16,16,16s16-7.178,16-16S168.822,264,160,264z"/>
	<path d="M144,240c0-8.822-7.178-16-16-16s-16,7.178-16,16s7.178,16,16,16S144,248.822,144,240z"/>
	<path d="M160,216c8.822,0,16-7.178,16-16s-7.178-16-16-16s-16,7.178-16,16S151.178,216,160,216z"/>
	<path d="M296,312c-8.822,0-16,7.178-16,16s7.178,16,16,16s16-7.178,16-16S304.822,312,296,312z"/>
	<path d="M288,280c0-8.822-7.178-16-16-16s-16,7.178-16,16s7.178,16,16,16S288,288.822,288,280z"/>
	<path d="M304,224c-8.822,0-16,7.178-16,16s7.178,16,16,16s16-7.178,16-16S312.822,224,304,224z"/>
	<path d="M272,216c8.822,0,16-7.178,16-16s-7.178-16-16-16s-16,7.178-16,16S263.178,216,272,216z"/>
</g>
<g>
</g>
<g>
</g>
<g>
</g>
<g>
</g>
<g>
</g>
<g>
</g>
<g>
</g>
<g>
</g>
<g>
</g>
<g>
</g>
<g>
</g>
<g>
</g>
<g>
</g>
<g>
</g>
<g>
</g>
</svg>
